<?xml version="1.0" standalone="no"?>
<!DOCTYPE svg PUBLIC "-//W3C//DTD SVG 20010904//EN"
 "http://www.w3.org/TR/2001/REC-SVG-20010904/DTD/svg10.dtd">
<svg version="1.0" xmlns="http://www.w3.org/2000/svg"
 width="500.000000pt" height="500.000000pt" viewBox="0 0 500.000000 500.000000"
 preserveAspectRatio="xMidYMid meet">
<metadata>
Created by potrace 1.16, written by Peter Selinger 2001-2019
</metadata>
<g transform="translate(0.000000,500.000000) scale(0.100000,-0.100000)"
fill="#000000" stroke="none">
<path d="M2240 4789 c-437 -50 -859 -228 -1185 -501 -446 -372 -723 -873 -800
-1442 -26 -191 -17 -521 18 -706 45 -233 102 -403 204 -604 114 -228 228 -383
417 -572 346 -347 736 -550 1213 -636 111 -19 162 -22 378 -22 269 0 384 13
593 69 392 105 776 336 1051 633 294 317 483 683 566 1097 161 810 -128 1643
-754 2167 -342 286 -738 458 -1181 513 -133 16 -394 18 -520 4z m440 -140
c718 -66 1361 -504 1689 -1149 154 -302 224 -602 224 -955 0 -199 -15 -324
-63 -517 -162 -649 -664 -1212 -1295 -1448 -932 -350 -1953 -18 -2511 817
-351 524 -440 1226 -233 1830 315 921 1225 1512 2189 1422z"/>
<path d="M1800 4186 c-13 -34 6 -94 41 -128 23 -24 36 -29 65 -26 46 4 62 26
48 65 -7 22 -16 29 -44 31 -22 2 -29 6 -21 12 11 6 10 14 -5 39 -24 40 -70 44
-84 7z"/>
<path d="M3116 4185 c-9 -13 -16 -28 -16 -32 0 -4 -14 -16 -30 -25 -22 -13
-30 -24 -30 -46 0 -99 143 -48 157 57 4 26 1 46 -7 56 -19 23 -56 18 -74 -10z"/>
<path d="M1522 4148 c-38 -13 -89 -67 -99 -105 -11 -47 12 -152 41 -182 28
-29 33 -43 15 -38 -25 5 -18 -22 11 -43 30 -21 39 -22 148 -17 75 4 144 14
192 27 41 12 91 24 110 27 46 5 95 -22 134 -76 29 -40 31 -49 31 -129 0 -84
-1 -89 -37 -142 -39 -59 -58 -101 -58 -128 1 -9 9 4 19 30 10 25 28 60 40 76
65 91 77 182 37 267 -50 107 -118 134 -247 100 -35 -10 -77 -20 -94 -22 -28
-4 -27 -3 10 16 72 37 175 71 213 71 83 -1 166 -66 178 -141 10 -59 27 -48 22
14 -8 92 -76 153 -185 164 l-56 6 54 14 c66 17 112 11 146 -19 129 -114 133
-169 26 -326 l-58 -84 0 -98 c0 -90 2 -101 23 -120 28 -26 28 -56 1 -71 -32
-17 -47 6 -61 94 -7 42 -16 77 -20 77 -14 0 -21 -52 -15 -115 5 -57 4 -63 -13
-68 -18 -5 -20 0 -21 56 0 44 -3 56 -9 42 -17 -39 -10 47 9 125 11 41 17 78
14 83 -9 15 -33 6 -33 -12 0 -10 -7 -24 -15 -31 -12 -10 -16 -8 -24 11 -32 85
-41 99 -62 99 -19 0 -21 -4 -15 -31 l6 -31 -46 41 c-25 22 -59 43 -75 46 -16
4 -73 -1 -127 -10 -102 -17 -136 -13 -174 21 -9 9 -27 14 -40 12 -34 -5 -36
-47 -4 -77 36 -34 97 -38 173 -12 95 32 115 28 178 -35 26 -26 51 -24 41 3
-10 24 13 3 29 -27 8 -16 14 -44 13 -61 -4 -41 16 -48 36 -12 15 26 16 21 14
-92 -2 -66 1 -136 5 -156 7 -29 6 -37 -7 -42 -29 -12 -49 48 -55 168 -3 61
-10 116 -14 123 -12 17 -34 15 -45 -5 -9 -15 -13 -13 -36 15 -36 42 -58 47
-105 22 -22 -11 -51 -20 -65 -20 -14 0 -29 -8 -35 -17 -8 -15 -25 -18 -108
-18 -86 0 -105 3 -157 28 -71 33 -96 35 -96 7 0 -20 -1 -20 -32 -4 -18 9 -64
43 -103 74 -80 65 -96 75 -145 84 -128 23 -252 -124 -196 -232 25 -47 81 -94
117 -97 22 -1 39 -11 52 -29 49 -68 146 -75 277 -19 95 41 179 54 210 32 11
-7 5 -10 -25 -8 -75 3 -92 -1 -124 -31 -32 -31 -38 -45 -22 -54 9 -6 64 9 94
25 10 5 22 7 27 4 15 -9 12 -35 -4 -35 -24 0 -30 -22 -11 -37 13 -9 15 -13 5
-13 -8 0 -57 -44 -110 -99 -128 -132 -162 -138 -270 -52 -97 78 -122 91 -179
91 -50 0 -57 -3 -93 -40 -35 -38 -38 -45 -38 -99 0 -109 61 -145 120 -72 17
22 40 43 50 46 27 9 25 31 -2 40 -19 6 -20 8 -6 12 22 6 42 -6 125 -68 l67
-51 59 7 c32 3 70 10 83 15 22 9 24 8 15 -9 -6 -10 -29 -26 -51 -35 -24 -9
-40 -22 -37 -29 7 -19 77 -9 125 19 39 23 46 24 72 12 17 -7 30 -16 30 -21 0
-4 -18 -26 -41 -48 -33 -32 -40 -45 -37 -72 3 -32 3 -32 56 -31 28 1 52 0 52
-1 0 -2 -17 -9 -37 -15 -79 -24 -123 -50 -123 -70 0 -28 42 -36 93 -17 l42 16
-30 -24 c-54 -45 -106 -58 -199 -53 -94 6 -118 -1 -96 -28 10 -11 -8 -5 -50
16 -55 28 -71 32 -119 28 -47 -4 -59 -10 -88 -41 -29 -32 -33 -43 -33 -89 1
-67 36 -121 99 -155 53 -27 121 -31 121 -7 0 10 5 14 15 10 44 -17 142 -17
190 -1 109 37 185 98 383 308 82 88 134 128 162 126 8 0 1 -7 -16 -14 -17 -8
-36 -20 -43 -28 -22 -28 6 -28 68 -2 33 14 74 25 90 25 27 0 30 4 36 43 11 74
18 87 26 47 l6 -35 2 31 1 31 48 -8 c27 -4 66 -16 86 -27 26 -14 45 -18 59
-13 33 12 32 29 -6 65 -28 26 -34 38 -30 59 6 32 -18 47 -43 26 -13 -10 -19
-8 -40 13 l-26 25 20 39 c37 69 87 139 97 134 6 -3 10 -44 10 -91 0 -98 8
-114 63 -123 20 -4 52 -9 70 -12 30 -6 32 -5 32 25 0 32 -22 51 -58 51 -18 0
-20 7 -18 63 l1 64 25 -18 c14 -9 53 -20 87 -23 56 -5 64 -4 74 15 6 12 8 32
5 45 -6 21 -12 24 -52 24 -57 0 -77 11 -109 57 l-24 37 37 21 c51 29 159 71
207 80 71 14 325 13 393 -2 34 -7 102 -32 151 -54 l90 -41 -21 -32 c-31 -47
-63 -67 -114 -70 -54 -3 -69 -21 -51 -60 12 -25 14 -26 77 -20 37 3 76 14 90
23 l25 18 0 -61 c0 -59 -1 -61 -28 -64 -31 -4 -62 -44 -53 -68 5 -12 14 -15
39 -10 17 3 49 9 70 12 58 10 73 39 57 114 -12 58 -8 110 9 110 11 0 91 -120
108 -161 10 -23 8 -30 -12 -49 -20 -19 -26 -20 -45 -8 -18 11 -23 11 -35 -5
-7 -10 -11 -26 -8 -35 2 -10 -8 -29 -26 -46 -36 -35 -39 -51 -11 -66 16 -8 30
-5 67 15 30 15 64 25 90 25 l43 0 2 -112 2 -113 6 105 c5 95 12 106 22 35 2
-13 13 -22 33 -25 l30 -5 -32 -14 c-33 -13 -43 -34 -22 -46 7 -5 6 -12 -4 -23
-8 -10 -17 -35 -21 -58 -5 -33 -2 -45 14 -59 25 -23 25 -35 1 -35 -13 0 -26
-14 -38 -40 -16 -35 -39 -57 -49 -47 -2 2 7 32 21 67 13 34 27 79 30 99 4 21
-5 5 -20 -38 -14 -40 -32 -86 -40 -102 -17 -32 -19 -53 -5 -44 7 4 7 -2 1 -17
-5 -13 -14 -42 -20 -65 -11 -41 -13 -43 -52 -43 -33 0 -45 6 -71 36 -29 33
-35 36 -72 31 -37 -5 -39 -4 -22 9 11 8 23 14 28 14 4 0 8 7 8 15 0 11 -11 15
-39 15 -25 0 -41 5 -45 15 -4 12 -2 13 14 3 15 -9 24 -9 44 2 33 17 27 25 -7
9 -23 -11 -29 -9 -45 11 -22 28 -47 22 -64 -15 -14 -31 0 -67 37 -91 22 -14
33 -15 73 -6 44 10 49 9 72 -14 l25 -25 -30 -25 c-40 -33 -125 -79 -194 -105
-72 -26 -223 -59 -279 -59 -109 0 -322 62 -424 123 -71 44 -80 53 -73 76 10
32 36 41 81 30 48 -12 88 0 105 33 l11 23 -21 -22 c-27 -28 -63 -38 -89 -24
-12 6 -29 11 -38 11 -20 0 -74 -47 -74 -65 0 -5 32 -32 72 -58 39 -26 66 -47
60 -47 -7 0 -21 5 -31 12 -40 25 -169 -82 -191 -159 -6 -21 -15 -76 -20 -122
-5 -46 -11 -86 -15 -89 -3 -3 -5 48 -5 112 0 116 0 119 36 184 20 37 50 84 66
105 34 44 30 54 -27 59 -34 3 -40 7 -48 34 -7 23 -5 41 6 65 23 53 27 81 13
114 -12 28 -13 26 -8 -26 2 -31 0 -59 -5 -62 -10 -6 -53 85 -78 165 -14 43
-14 43 -14 10 -1 -18 10 -55 24 -82 14 -27 25 -53 25 -58 0 -5 -11 -14 -25
-20 -15 -7 -25 -8 -25 -2 0 6 -7 10 -15 10 -9 0 -20 11 -25 24 -5 13 -14 27
-20 31 -19 12 11 37 36 31 18 -5 22 -3 18 9 -4 8 -11 15 -16 15 -7 0 -6 5 1
14 21 26 -7 116 -37 117 -13 0 -11 3 6 9 29 12 28 33 -4 51 -24 13 -32 11
-108 -30 -61 -32 -87 -41 -107 -36 -24 6 -32 0 -70 -51 -24 -32 -61 -74 -83
-93 -46 -44 -67 -81 -59 -109 9 -37 46 -27 88 24 20 25 39 43 42 40 11 -11
-31 -96 -62 -126 -19 -18 -64 -49 -101 -69 -106 -58 -131 -112 -66 -145 30
-16 56 -7 120 42 32 24 32 24 32 3 0 -14 6 -21 19 -21 62 0 85 44 85 166 1
101 11 124 51 116 24 -4 25 -7 19 -48 -5 -37 -4 -44 10 -44 9 0 16 3 16 8 1 4
12 21 26 37 l25 30 -14 -35 c-8 -19 -29 -80 -47 -135 -18 -55 -41 -116 -51
-137 -36 -73 -136 -128 -231 -128 -52 0 -115 32 -183 91 -49 43 -62 49 -100
49 -61 0 -92 -14 -115 -52 -31 -51 -27 -113 9 -149 37 -37 70 -37 110 0 35 33
38 46 14 60 -16 8 -13 12 21 26 51 21 89 12 150 -36 27 -22 60 -42 74 -46 42
-10 178 4 208 22 l29 17 -27 -25 c-31 -29 -36 -47 -13 -47 21 0 30 -27 15 -45
-7 -8 -24 -16 -39 -16 -23 -2 -23 -2 -4 -6 33 -6 63 14 63 43 0 13 -7 27 -15
30 -12 5 -4 16 29 45 30 27 48 52 57 84 l14 46 8 -31 c5 -21 18 -36 42 -47 33
-16 37 -16 70 0 47 22 59 70 44 167 -6 40 -8 86 -5 104 7 36 43 90 76 113 28
20 40 8 55 -51 10 -38 9 -48 -6 -67 l-17 -24 -7 26 c-3 14 -5 39 -3 54 4 42
-25 45 -42 5 -10 -24 -10 -36 -1 -53 11 -22 11 -22 7 3 -3 14 -1 31 3 39 6 10
11 -4 16 -42 7 -56 -3 -87 -27 -87 -5 0 -2 7 6 16 9 8 16 21 16 27 0 7 -5 6
-11 -3 -8 -11 -12 -12 -16 -2 -9 23 -24 12 -21 -15 2 -22 9 -29 31 -31 22 -3
26 -7 23 -25 -10 -49 -15 -122 -6 -97 6 20 8 21 8 5 0 -26 -16 -74 -18 -55 -1
8 -10 -8 -20 -37 -26 -74 -57 -110 -118 -140 -50 -24 -59 -25 -150 -19 -53 3
-112 9 -129 12 -26 5 -33 3 -33 -10 0 -14 16 -16 108 -18 59 -1 122 -2 140 -1
17 0 32 -1 32 -3 0 -9 -107 -48 -192 -69 -113 -28 -168 -54 -197 -92 l-21 -28
6 33 c7 37 -1 40 -49 16 -46 -24 -73 -59 -92 -121 -19 -59 -17 -84 14 -155 26
-62 68 -88 140 -88 44 0 59 5 92 31 48 38 96 125 82 148 -6 9 -8 22 -6 29 9
26 197 132 235 132 21 0 168 62 168 71 0 5 4 9 10 9 6 0 6 -9 0 -26 -15 -38
-13 -44 14 -44 33 0 74 55 84 111 7 38 11 44 32 44 22 0 25 5 28 43 2 30 -3
54 -19 82 -19 33 -20 42 -10 53 11 9 14 9 18 0 3 -7 11 -13 19 -13 9 0 12 8 8
28 -2 15 0 34 6 42 9 13 12 12 25 -4 18 -24 22 -241 4 -251 -6 -4 -8 -14 -4
-23 3 -9 3 -13 -1 -9 -10 9 -34 -12 -34 -30 0 -11 7 -13 27 -8 74 18 -60 -76
-234 -164 -127 -64 -144 -80 -163 -151 -34 -125 92 -267 204 -230 53 17 93 63
112 127 17 58 14 135 -5 141 -34 11 16 92 117 192 49 48 97 105 110 131 25 52
29 121 8 138 -21 17 -39 121 -32 187 3 32 6 69 6 82 0 23 10 28 25 13 6 -5 30
-16 55 -25 29 -10 37 -15 22 -16 -27 0 -38 -25 -48 -110 -7 -60 -6 -62 27 -96
18 -19 37 -34 42 -34 5 0 7 19 5 43 -3 39 -1 42 22 42 23 0 25 4 31 58 4 32 9
61 13 64 3 4 38 2 76 -3 65 -9 142 -5 247 12 40 6 41 5 36 -16 -4 -13 -8 -17
-13 -10 -7 12 -100 -7 -111 -23 -4 -5 -4 -28 -2 -51 6 -50 -18 -143 -46 -177
l-19 -24 -22 50 c-12 28 -24 79 -27 115 -7 107 -7 106 -60 114 -46 6 -70 -5
-56 -27 3 -5 9 -4 12 2 5 8 20 9 46 3 l39 -8 3 -65 c3 -85 46 -199 75 -199 20
0 61 115 66 188 2 40 7 74 11 76 3 2 23 7 45 10 l38 7 -4 -73 c-4 -87 -20
-121 -102 -217 l-59 -70 -21 27 c-11 15 -37 46 -59 70 -46 51 -76 116 -88 186
l-8 51 4 -57 c4 -70 30 -129 81 -189 21 -25 51 -61 67 -80 26 -32 28 -33 40
-15 6 10 35 46 63 80 69 82 86 118 100 206 11 70 12 72 13 27 1 -44 3 -48 24
-45 19 3 22 -1 20 -29 -4 -42 11 -49 47 -23 21 15 30 29 29 48 -1 27 -1 27 -8
3 -3 -13 -16 -30 -29 -39 -21 -14 -22 -13 -22 18 0 23 -5 33 -20 37 -11 3 -21
10 -21 17 -1 6 -3 23 -4 37 -3 25 -2 26 21 15 13 -6 27 -19 30 -28 3 -10 10
-18 15 -18 15 0 10 56 -6 70 -8 7 -12 16 -9 21 12 19 24 7 38 -38 11 -36 15
-41 15 -22 1 35 -18 89 -32 89 -10 1 81 50 92 50 2 0 0 -7 -3 -16 -3 -8 -1
-36 5 -60 16 -62 -5 -193 -33 -213 -17 -12 -19 -21 -14 -58 9 -69 50 -133 140
-220 44 -43 92 -100 106 -126 23 -45 24 -49 8 -58 -30 -17 -24 -122 10 -184
33 -62 101 -101 156 -91 43 8 122 77 141 123 38 89 -6 188 -103 236 -144 70
-235 123 -278 163 -43 39 -45 43 -17 29 40 -19 54 -3 25 28 -40 45 -47 69 -45
170 1 54 5 107 8 118 11 33 30 16 33 -30 3 -42 4 -42 22 -26 28 25 35 0 15
-49 -21 -51 -13 -57 9 -7 22 48 18 76 -12 75 -18 0 -22 5 -22 27 0 27 2 28 25
17 32 -14 43 -4 22 20 -10 10 -17 23 -17 29 0 18 -36 43 -64 43 -31 0 -31 -17
0 -34 35 -20 46 -47 16 -39 -35 9 -45 -21 -46 -147 -1 -79 -4 -115 -11 -109
-6 6 -10 60 -9 122 0 62 -3 99 -7 82 -5 -22 -6 -18 -3 14 2 24 5 58 6 75 1 29
2 28 8 -9 7 -35 7 -34 5 15 -2 30 -6 63 -10 73 -5 11 -3 17 6 17 20 -1 106
-65 124 -94 22 -33 55 -197 55 -272 0 -44 7 -74 25 -109 13 -27 23 -50 21 -52
-1 -2 -13 9 -27 23 -14 15 -28 47 -34 77 -9 46 -13 52 -40 57 -20 4 -31 13
-36 30 -6 20 -7 21 -8 5 -1 -30 15 -50 41 -50 19 0 24 -7 29 -40 6 -50 21 -77
55 -104 31 -24 44 -20 44 15 0 27 10 30 48 10 15 -7 70 -28 122 -46 52 -17
103 -36 115 -42 88 -46 168 -118 130 -118 -23 0 -18 -29 16 -85 40 -67 84 -95
149 -95 79 0 121 33 150 118 25 76 20 119 -23 183 -27 40 -85 81 -106 76 -17
-3 -17 -7 -7 -47 7 -25 6 -24 -9 2 -8 15 -34 38 -58 52 -40 23 -62 31 -172 57
-27 6 -65 20 -83 30 -18 11 -42 19 -52 19 -10 0 -21 3 -23 8 -3 4 54 8 127 10
72 2 135 8 140 12 17 17 -22 22 -74 11 -66 -14 -163 -14 -211 1 -60 18 -115
70 -134 129 -9 28 -14 53 -11 56 3 4 6 -1 6 -10 0 -9 5 -19 11 -23 8 -4 9 1 4
17 -9 28 -3 24 15 -10 8 -15 8 -21 1 -17 -17 11 -13 -10 4 -24 27 -23 26 -5
-4 61 -28 61 -30 63 -39 39 -8 -22 -10 -19 -16 30 -4 30 -9 67 -12 82 -5 25
-2 28 20 28 16 0 27 7 31 20 9 28 -3 44 -21 29 -12 -10 -14 -4 -8 44 7 59 -4
87 -33 87 -11 0 -13 -7 -9 -26 4 -14 4 -41 0 -60 l-6 -34 -19 24 c-15 19 -17
30 -9 56 5 18 7 36 5 40 -3 4 4 15 15 25 20 18 21 18 59 -19 53 -52 65 -98 50
-189 -7 -40 -9 -89 -5 -109 7 -37 45 -78 73 -78 28 0 74 32 85 58 l11 27 9
-34 c12 -43 50 -93 83 -111 21 -11 23 -15 10 -22 -37 -21 -7 -79 42 -78 11 1
6 6 -14 15 -37 16 -44 44 -13 52 11 3 20 12 20 20 0 11 11 14 43 13 121 -7
142 -2 206 45 75 55 108 64 150 39 27 -16 28 -19 13 -31 -15 -12 -13 -16 23
-49 33 -29 45 -34 69 -30 38 8 56 24 73 63 11 28 11 38 -3 73 -25 61 -65 90
-126 90 -46 0 -55 -4 -108 -50 -82 -71 -138 -94 -212 -86 -121 12 -182 67
-234 212 -20 54 -42 121 -50 149 l-13 50 23 -29 c33 -42 59 -31 44 18 -14 44
-9 49 25 33 34 -15 40 -34 41 -129 1 -91 23 -131 74 -136 27 -3 32 0 32 18 0
21 2 20 35 -9 59 -51 129 -54 141 -7 10 42 -5 64 -69 102 -113 67 -140 88
-155 124 -10 24 -11 35 -3 38 6 2 8 9 5 15 -4 7 9 -3 27 -20 45 -42 69 -43 69
-4 0 23 -17 49 -72 110 -67 76 -116 141 -105 141 3 0 44 -45 92 -100 89 -101
190 -181 282 -223 37 -16 69 -22 138 -22 50 -1 98 -5 108 -9 10 -5 36 -6 58
-2 87 14 159 93 159 177 0 111 -115 162 -238 104 -29 -13 -50 -20 -46 -14 12
20 -18 27 -96 22 -96 -7 -129 0 -127 27 1 11 7 22 14 24 7 3 13 14 13 24 0 13
-17 27 -57 45 -38 17 -50 26 -36 27 24 0 43 26 43 57 0 11 -20 40 -45 65 -47
48 -58 73 -27 64 9 -3 23 -1 31 4 10 6 28 1 55 -15 53 -29 124 -41 132 -21 3
8 1 24 -6 35 -10 20 -8 21 27 21 45 0 79 17 142 69 54 45 91 58 118 41 16 -10
16 -11 1 -6 -10 3 -25 3 -33 0 -16 -7 -21 -34 -5 -34 5 0 29 -21 54 -46 38
-40 48 -46 71 -40 39 10 70 82 55 133 -12 45 -16 51 -58 86 -26 21 -44 27 -80
27 -49 0 -81 -17 -168 -87 -56 -45 -109 -66 -148 -57 -22 4 -61 37 -133 110
-56 57 -97 107 -92 110 15 9 -10 34 -27 27 -11 -4 -12 0 -6 17 10 27 5 27 85
0 30 -9 42 -9 50 0 9 8 4 18 -20 41 -57 50 -41 51 86 4 58 -22 85 -26 133 -23
56 4 64 8 100 46 29 32 46 42 70 42 23 0 40 10 70 43 50 54 60 80 52 135 -11
70 -72 130 -150 145 -65 12 -129 -17 -229 -105 -24 -21 -59 -45 -78 -53 -33
-14 -35 -13 -30 5 8 29 -29 26 -97 -7 -48 -23 -68 -26 -154 -26 -82 -1 -100 2
-108 16 -5 9 -20 17 -34 17 -14 0 -37 6 -52 14 -57 29 -69 28 -107 -5 -27 -24
-39 -29 -48 -20 -16 16 -34 14 -42 -6 -4 -10 -11 -65 -15 -123 -5 -77 -13
-116 -28 -145 -12 -22 -26 -53 -33 -70 -17 -45 -24 -11 -9 51 8 34 11 93 8
172 -3 67 -2 125 1 131 4 5 15 9 25 8 13 -1 22 9 33 38 7 22 21 47 29 55 13
13 14 13 9 -2 -13 -33 6 -41 34 -15 69 63 99 69 181 37 28 -11 67 -20 86 -20
66 0 123 47 109 90 -8 26 -56 27 -79 1 -26 -29 -61 -31 -171 -14 -94 15 -103
15 -136 -1 -20 -9 -50 -31 -67 -47 l-31 -30 2 27 c1 20 -3 29 -15 32 -16 3
-40 -37 -62 -102 -5 -15 -9 -17 -19 -7 -7 7 -13 16 -13 21 -1 6 -2 15 -3 20
-2 15 -31 12 -37 -3 -3 -8 4 -47 16 -88 12 -44 19 -100 19 -139 l-2 -65 -8 74
c-7 56 -18 90 -45 140 -66 119 -69 124 -68 186 0 70 26 128 74 169 45 37 75
42 145 22 172 -49 341 -61 396 -29 30 18 38 38 17 46 -9 3 -6 11 9 28 30 33
43 73 47 138 5 81 -22 125 -94 154 -25 10 -47 11 -75 5 -33 -7 -46 -17 -75
-60 -19 -29 -51 -70 -70 -91 -30 -35 -32 -40 -17 -48 44 -25 -4 -41 -83 -28
-27 4 -100 26 -161 48 -125 46 -185 52 -212 21 -9 -11 -23 -20 -31 -20 -21 0
-85 -70 -97 -109 -7 -21 -9 -61 -5 -107 7 -73 7 -74 -17 -74 -28 0 -41 14 -51
50 -10 42 -23 57 -38 42 -9 -9 -9 -22 4 -63 14 -43 14 -49 2 -38 -9 7 -22 25
-30 41 -18 36 -29 35 -51 -2 -19 -32 -40 -41 -28 -12 3 9 9 29 12 45 4 22 2
27 -14 27 -13 0 -23 -13 -33 -42 -12 -35 -20 -44 -42 -46 -33 -4 -103 -84
-143 -162 -25 -50 -27 -61 -22 -132 3 -48 13 -94 25 -118 19 -39 14 -60 -13
-60 -6 0 -30 -9 -53 -20 -73 -35 -92 -41 -86 -26 3 8 -2 38 -10 67 -9 29 -15
71 -15 93 2 37 2 36 9 -14 6 -51 14 -72 38 -108 7 -10 20 -7 61 14 48 24 52
29 47 53 -24 107 -25 127 -16 189 10 60 24 100 39 112 4 3 28 32 54 66 98 126
82 270 -37 331 -17 9 -35 22 -39 29 -12 21 -98 17 -154 -7 -119 -51 -259 -84
-298 -69 -31 12 -32 26 -2 34 l22 6 -27 24 c-15 14 -43 48 -61 78 -19 29 -43
61 -54 70 -25 23 -70 29 -111 16z m1478 -213 c47 -11 50 -13 22 -14 -68 -2
-124 -23 -163 -62 -44 -44 -67 -107 -52 -141 10 -21 11 -20 23 22 6 24 21 56
32 70 28 36 96 70 140 70 43 0 131 -28 222 -71 64 -31 51 -30 -69 2 -118 32
-171 25 -223 -30 -69 -73 -83 -192 -32 -282 66 -119 79 -153 82 -219 3 -62 2
-65 -21 -68 -21 -3 -23 -1 -17 20 15 49 17 104 6 133 -11 28 -13 28 -20 10 -5
-11 -12 -45 -15 -76 -8 -73 -23 -96 -53 -80 -28 15 -28 48 -1 77 23 25 36 117
25 178 -4 19 -34 76 -68 125 -95 142 -92 213 13 301 66 55 80 58 169 35z
m-570 -229 c0 -2 -23 -32 -51 -67 -97 -121 -104 -139 -105 -263 0 -115 -12
-144 -34 -84 -6 18 -14 65 -17 103 -7 84 4 113 71 203 35 46 54 62 72 62 14 0
30 10 40 25 15 23 24 31 24 21z m245 -74 c11 -14 37 -50 58 -81 l38 -56 -3
-95 c-4 -101 -18 -143 -44 -133 -11 4 -13 14 -9 37 6 29 5 30 -10 12 -14 -18
-19 -38 -16 -58 2 -12 -12 -9 -29 5 -9 7 -16 33 -18 67 -1 30 -9 78 -18 106
-17 54 -8 94 20 94 30 0 46 -34 75 -155 9 -39 9 -39 10 -8 2 74 -36 186 -82
235 -6 8 -23 26 -36 41 l-25 27 35 -7 c18 -3 43 -18 54 -31z m-745 -143 c0
-23 26 -42 50 -36 24 6 25 -4 5 -58 -8 -22 -15 -76 -16 -120 l-1 -80 -10 53
c-5 28 -14 52 -19 52 -5 0 -9 -28 -10 -62 -1 -55 -2 -59 -10 -33 -6 17 -8 80
-5 140 5 101 1 145 -19 200 -4 11 2 7 14 -10 11 -16 21 -37 21 -46z m1164 36
c-10 -24 -15 -80 -16 -187 -1 -84 -3 -130 -5 -103 -5 64 -20 79 -28 29 -4 -22
-11 -50 -16 -64 -8 -21 -8 -18 -5 15 5 42 -7 155 -22 217 -9 33 -8 36 8 26 24
-15 46 -4 54 27 6 25 34 75 42 75 1 0 -4 -16 -12 -35z m-760 2 c-6 -16 18 -39
37 -35 8 2 12 -3 10 -12 -2 -8 -10 -37 -17 -63 -7 -27 -15 -72 -18 -99 -7 -71
-20 -79 -41 -24 -22 57 -16 180 10 220 19 28 27 34 19 13z m232 -18 c31 -29
66 -128 62 -175 -2 -31 -7 -40 -24 -42 -19 -3 -22 3 -26 55 -4 57 -38 142 -65
165 -32 26 -90 -75 -95 -166 -3 -50 -5 -56 -23 -54 -41 6 -24 145 25 206 37
46 104 51 146 11z m658 -234 c19 -28 57 -33 76 -10 7 8 16 30 19 48 7 30 10
32 43 29 20 -2 57 4 82 12 26 9 70 16 99 15 l52 -1 -75 -17 c-80 -18 -109 -31
-130 -56 -7 -8 -31 -24 -54 -34 -42 -18 -89 -69 -119 -126 -16 -33 -66 -90
-72 -83 -2 2 2 26 10 53 8 29 14 40 14 27 1 -14 6 -22 14 -20 19 7 39 55 35
86 l-3 27 -23 -35 -22 -35 0 97 c0 53 5 109 12 125 11 27 11 27 19 -25 4 -29
14 -63 23 -77z m-1404 89 c6 -14 10 -69 10 -122 -1 -91 -2 -95 -14 -66 -8 18
-19 35 -25 38 -17 11 -25 -22 -12 -47 10 -20 11 -20 6 8 -4 25 -3 27 6 12 6
-10 8 -25 5 -33 -8 -20 3 -44 20 -44 8 0 14 8 15 18 0 9 6 -3 13 -28 6 -25 11
-47 9 -49 -6 -9 -36 26 -87 104 -47 71 -62 86 -108 108 -29 14 -61 34 -71 45
-17 19 -54 32 -147 51 l-45 9 56 1 c30 1 77 -6 103 -15 28 -10 62 -14 82 -11
31 5 34 3 40 -21 12 -58 23 -72 53 -72 39 0 54 21 59 86 5 58 17 69 32 28z
m-548 -19 c33 -9 99 -21 147 -26 47 -5 94 -12 104 -15 21 -7 23 -24 1 -24 -9
0 -14 -5 -12 -12 4 -12 30 -20 102 -33 44 -7 77 -39 111 -106 13 -25 36 -60
50 -78 15 -17 23 -31 18 -31 -15 0 -58 51 -88 103 -15 26 -30 46 -33 43 -3 -3
0 -11 6 -18 12 -16 43 -88 37 -88 -8 0 -55 103 -50 108 13 13 -21 32 -56 32
-24 0 -60 11 -93 29 -35 18 -77 31 -121 36 -57 6 -64 9 -49 19 15 12 13 14
-21 20 -57 11 -145 46 -145 58 0 5 7 7 15 4 9 -3 43 -13 77 -21z m2548 16 c0
-11 -57 -34 -128 -52 -46 -11 -51 -15 -37 -25 14 -10 5 -13 -50 -19 -45 -5
-86 -18 -123 -38 -34 -18 -70 -29 -91 -29 -48 2 -65 -10 -101 -75 -33 -60 -67
-103 -81 -103 -5 0 9 26 30 58 21 31 46 72 55 89 22 43 50 61 122 74 70 14 86
25 54 37 -23 9 -24 9 -5 19 11 6 61 16 110 22 50 6 122 19 160 30 88 23 85 23
85 12z m-2432 -167 c37 -9 78 -27 92 -39 14 -13 47 -36 75 -52 42 -25 56 -41
87 -101 20 -39 49 -83 65 -97 56 -52 -7 -8 -102 70 -103 86 -184 135 -221 135
-25 0 -54 24 -54 45 0 24 -18 26 -70 9 -28 -9 -53 -14 -56 -11 -9 9 69 57 94
57 12 0 53 -7 90 -16z m2367 -6 c56 -37 44 -50 -22 -23 -48 20 -48 20 -71 -18
-15 -26 -28 -35 -56 -40 -49 -8 -117 -51 -227 -142 -90 -75 -122 -95 -81 -52
12 13 38 54 56 92 31 60 42 72 95 102 33 19 66 42 73 51 14 19 112 48 166 51
18 0 47 -9 67 -21z m-2959 -188 c15 -6 48 -28 73 -49 86 -72 121 -91 170 -93
40 -1 41 -2 11 -5 -51 -6 -144 21 -197 57 -26 18 -49 27 -52 22 -3 -6 -17 -12
-31 -14 -14 -2 -24 -8 -23 -15 1 -6 -5 -10 -15 -9 -11 1 -18 -8 -20 -22 -3
-19 -9 -22 -43 -20 -44 3 -55 20 -44 67 6 28 47 74 75 84 25 9 67 8 96 -3z
m3512 -4 c44 -22 64 -52 64 -91 0 -44 0 -44 -46 -52 -26 -4 -36 -2 -36 8 0 20
-41 59 -63 59 -11 0 -25 8 -32 17 -11 15 -13 15 -24 -5 -6 -12 -16 -22 -22
-22 -6 0 -23 -8 -37 -18 -26 -18 -131 -47 -139 -38 -2 2 7 6 21 10 29 7 72 35
137 88 71 59 124 72 177 44z m-2829 -74 c29 -14 110 -72 98 -72 -1 0 -20 9
-41 20 -37 18 -61 18 -54 0 5 -12 97 -80 109 -80 6 0 9 9 6 20 -7 26 5 25 29
-1 10 -12 32 -30 47 -39 l28 -17 -43 -7 c-105 -16 -187 -59 -318 -166 -61 -51
-122 -80 -165 -80 -57 0 -38 22 40 48 78 25 128 67 152 124 l15 37 56 -5 c52
-6 60 -4 85 19 15 15 27 37 27 51 0 32 -52 76 -92 76 -16 0 -41 9 -55 20 -29
23 -90 27 -116 8 -9 -7 -23 -31 -30 -53 -12 -33 -18 -39 -37 -37 -12 2 -45 -8
-72 -23 -26 -15 -54 -25 -61 -22 -6 2 7 14 31 26 23 12 70 51 104 87 88 93
158 111 257 66z m2223 -3 c20 -10 52 -38 70 -60 18 -23 60 -59 93 -80 68 -44
54 -53 -21 -13 -26 14 -58 24 -71 21 -18 -3 -23 1 -28 24 -4 15 -15 40 -26 54
-25 31 -80 34 -124 5 -16 -11 -41 -20 -55 -20 -14 0 -40 -9 -57 -20 -44 -27
-47 -78 -5 -110 23 -19 35 -21 79 -16 l53 6 20 -37 c37 -72 69 -98 151 -126
70 -25 89 -47 40 -47 -39 0 -111 36 -173 87 -129 105 -204 144 -300 158 l-47
7 39 32 c22 17 63 52 93 78 96 85 179 103 269 57z m-1954 -223 c2 -3 2 -17 -2
-31 -7 -27 -33 -34 -54 -13 -32 32 -161 0 -207 -52 l-20 -23 25 13 c23 12 24
12 11 -4 -8 -9 -21 -14 -30 -11 -10 3 -24 -7 -38 -28 -12 -17 -34 -44 -47 -58
-14 -15 -23 -29 -20 -31 10 -11 -36 -39 -67 -42 -19 -1 -45 -7 -59 -13 -41
-18 -131 -43 -153 -43 -11 0 -26 -8 -33 -17 -10 -14 -27 -18 -86 -18 -40 0
-76 -4 -80 -9 -4 -6 -13 -4 -23 4 -11 9 -13 16 -5 24 5 5 10 17 9 26 0 10 -3
9 -9 -5 -8 -20 -9 -19 -9 1 -1 12 -8 27 -16 34 -8 7 -15 17 -15 22 0 13 36 0
77 -28 43 -29 97 -40 126 -26 21 9 19 11 -23 30 l-45 20 98 -4 98 -3 67 41
c37 22 105 71 152 108 120 95 164 120 234 134 56 12 133 13 144 2z m1684 -11
c22 -7 48 -11 57 -8 12 4 13 2 3 -4 -9 -7 1 -19 40 -44 29 -18 59 -33 65 -32
7 0 10 -3 8 -8 -7 -10 123 -111 192 -149 49 -27 58 -29 150 -25 l98 3 -44 -19
c-32 -14 -41 -23 -33 -31 15 -15 95 -1 125 22 32 25 75 41 82 31 2 -5 -2 -14
-10 -21 -8 -7 -15 -19 -15 -27 0 -8 -5 -11 -10 -8 -7 4 -9 -2 -4 -19 4 -19 2
-28 -11 -32 -9 -4 -20 -3 -24 2 -3 5 -39 9 -79 9 -59 1 -76 4 -83 18 -6 9 -20
17 -33 17 -24 0 -138 34 -159 47 -7 4 -27 9 -45 10 -29 2 -100 43 -74 43 6 0
-2 13 -16 28 -15 16 -45 51 -68 78 -51 61 -118 96 -186 96 -27 0 -55 -5 -61
-11 -16 -16 -47 -14 -47 3 0 8 -3 21 -6 29 -4 11 2 16 23 19 47 6 123 -2 165
-17z m-1692 -150 c0 -2 -13 -11 -30 -20 -40 -21 -38 -35 5 -35 34 0 35 -1 35
-37 0 -34 -5 -41 -48 -67 -42 -25 -73 -57 -130 -135 l-18 -23 0 34 c0 26 6 38
30 53 49 32 62 65 47 112 l-13 39 -51 -2 c-42 -2 -55 -7 -81 -35 -17 -18 -38
-47 -46 -64 -14 -29 -99 -115 -113 -115 -13 0 13 48 43 81 17 19 52 60 77 92
34 43 53 57 72 57 14 1 58 16 96 35 60 30 125 45 125 30z m1651 -34 c36 -17
75 -31 86 -31 12 0 35 -17 53 -37 17 -21 53 -62 78 -92 49 -55 69 -88 60 -96
-8 -8 -118 103 -118 119 0 7 -15 30 -34 50 -30 33 -39 37 -88 40 -33 1 -55 -2
-56 -8 -16 -89 -15 -91 22 -124 20 -18 40 -32 44 -32 5 0 6 -16 4 -35 l-4 -35
-25 38 c-35 51 -106 117 -143 132 -33 14 -33 14 -24 59 5 26 11 31 35 31 24 0
55 20 32 20 -4 0 -19 10 -33 21 l-25 21 35 -5 c20 -3 65 -19 101 -36z m-371
-414 c0 -8 12 -24 26 -38 14 -13 43 -60 65 -104 33 -66 39 -89 39 -141 0 -35
-4 -65 -9 -68 -9 -6 -31 76 -31 115 0 49 -85 141 -160 173 l-32 13 43 31 c49
35 59 38 59 19z m-967 -114 c-9 -44 -8 -47 2 -209 5 -69 4 -127 -1 -137 -6
-10 -9 21 -10 86 0 56 -3 114 -7 128 -13 50 -67 44 -67 -7 0 -15 -5 -22 -13
-18 -8 3 -20 -2 -27 -11 -11 -13 -10 -23 8 -59 12 -24 22 -57 22 -75 0 -26 -4
-31 -23 -31 -33 0 -47 -18 -47 -61 0 -26 -8 -47 -26 -68 -32 -38 -52 -41 -26
-3 28 38 42 96 42 172 0 89 31 214 61 247 28 31 98 83 111 83 5 0 6 -16 1 -37z
m52 -42 c-5 -34 3 -110 24 -213 13 -59 -3 -115 -48 -178 -33 -46 -144 -140
-165 -140 -18 0 -72 -60 -94 -105 -11 -22 -23 -63 -27 -91 -7 -58 -37 -100
-77 -110 -26 -6 -28 -4 -28 23 0 16 7 38 15 49 8 10 15 28 15 40 0 12 11 38
25 58 28 41 31 56 13 56 -35 -1 -88 -71 -88 -116 0 -18 -5 -36 -10 -39 -6 -3
-7 -17 -4 -31 4 -17 2 -24 -9 -24 -46 0 -31 138 19 181 11 9 67 42 127 73 204
107 244 137 284 211 17 31 34 205 21 205 -5 0 -8 45 -8 101 0 69 3 98 11 94 6
-4 8 -22 4 -44z m801 3 c3 -25 3 -68 0 -97 -12 -90 -11 -200 3 -240 24 -71
102 -134 266 -218 160 -81 188 -106 201 -177 4 -19 3 -47 -2 -61 -11 -31 -40
-35 -37 -6 6 70 -54 185 -98 185 -23 0 -25 -13 -3 -30 19 -17 46 -79 38 -91
-3 -5 2 -16 10 -25 9 -8 16 -31 16 -50 0 -32 -2 -35 -22 -29 -40 11 -65 50
-77 116 -13 74 -54 146 -99 174 -80 50 -163 118 -190 157 -51 75 -57 107 -37
212 9 50 15 121 14 159 -4 76 6 90 17 21z m-1941 6 c3 -5 11 -10 16 -10 6 0 7
5 4 10 -14 23 37 7 71 -22 l36 -32 -42 -12 c-48 -14 -90 -49 -90 -75 0 -15
-19 -29 -40 -29 -5 0 -21 15 -35 34 l-25 33 19 45 c21 50 70 83 86 58z m3048
-2 c4 -10 8 -9 16 2 9 13 14 13 38 0 16 -8 36 -32 47 -53 15 -32 16 -42 6 -68
-12 -28 -37 -49 -59 -49 -6 0 -17 15 -24 33 -17 40 -31 51 -85 69 l-43 15 36
31 c38 34 60 40 68 20z m-793 -218 c0 -4 15 -22 33 -40 54 -54 206 -123 322
-146 33 -7 48 -12 33 -13 -18 -1 -28 -7 -28 -16 0 -8 4 -15 9 -15 4 0 29 -16
54 -35 30 -23 44 -41 41 -50 -4 -9 0 -15 10 -15 9 0 16 -7 16 -15 0 -8 -3 -15
-6 -15 -3 0 -40 27 -81 59 -45 36 -125 85 -203 123 -71 35 -129 67 -130 71 0
5 -27 38 -60 74 -53 59 -60 70 -59 107 l0 41 25 -54 c13 -29 24 -57 24 -61z
m-1394 56 c-4 -22 -25 -54 -57 -88 -27 -29 -55 -61 -62 -70 -7 -9 -70 -46
-142 -82 -128 -64 -153 -80 -226 -143 -42 -38 -49 -40 -49 -13 0 14 5 18 16
13 13 -5 15 -2 10 14 -5 15 4 26 39 51 25 18 50 32 55 32 6 0 10 7 10 15 0 9
-10 15 -27 16 -16 0 3 7 42 16 38 8 74 18 80 22 5 5 28 14 50 21 120 38 186
90 226 178 31 69 46 76 35 18z"/>
<path d="M2428 4053 c-44 -11 -28 -78 33 -136 l40 -39 42 48 c58 65 66 92 37
116 -14 12 -30 16 -39 12 -19 -9 -60 -10 -81 -2 -8 3 -23 4 -32 1z"/>
<path d="M1180 3851 c-18 -34 -12 -78 12 -95 12 -9 17 -16 10 -16 -19 0 -15
-65 6 -83 36 -33 102 -12 102 31 0 9 -7 30 -15 46 -11 20 -12 33 -5 40 17 17
11 51 -13 74 -30 28 -82 29 -97 3z"/>
<path d="M3722 3847 c-26 -28 -28 -54 -5 -79 9 -10 11 -18 5 -18 -19 0 -43
-60 -31 -81 13 -24 54 -34 84 -21 28 13 43 57 27 82 -9 14 -7 22 9 36 22 20
24 42 7 79 -15 34 -65 35 -96 2z"/>
<path d="M1890 3725 c-29 -31 -19 -57 26 -65 22 -4 30 -12 34 -34 12 -67 70
-55 70 15 0 29 -8 47 -31 74 -37 42 -66 45 -99 10z"/>
<path d="M3010 3720 c-34 -36 -45 -76 -30 -114 15 -40 51 -32 66 14 9 27 18
36 40 40 35 6 44 42 18 71 -25 28 -62 24 -94 -11z"/>
<path d="M2347 3143 c-24 -24 36 -93 81 -93 24 0 34 -6 44 -27 18 -38 34 -39
53 -4 12 24 22 31 46 31 47 0 99 67 72 93 -3 4 -14 0 -24 -9 -19 -17 -33 -18
-101 -8 -26 3 -60 2 -77 -4 -25 -9 -34 -7 -55 9 -27 21 -30 22 -39 12z"/>
<path d="M2390 2896 c-67 -19 -108 -43 -159 -95 -67 -67 -85 -110 -85 -203 0
-67 5 -85 34 -143 65 -128 179 -196 324 -194 39 0 80 5 91 10 14 6 2 7 -38 3
-63 -6 -169 4 -162 16 2 4 16 5 30 2 16 -3 25 0 25 8 0 9 3 10 14 1 14 -12
107 -9 138 3 11 5 17 2 20 -8 5 -25 77 13 130 69 74 77 93 124 93 235 0 72 -4
103 -18 127 -20 38 -78 96 -128 130 -74 49 -210 66 -309 39z m-213 -304 c4
-73 19 -86 88 -77 l49 6 -19 -22 -20 -22 25 8 c14 4 35 13 47 21 27 17 59 18
69 3 9 -15 9 -99 -1 -129 l-8 -25 22 25 22 25 -5 -34 c-3 -18 -6 -40 -6 -48 0
-12 -8 -14 -37 -8 -21 3 -41 10 -45 14 -4 4 4 24 19 44 22 31 24 40 13 50 -8
7 -10 8 -7 1 4 -7 -4 -28 -18 -48 -31 -46 -31 -50 3 -66 15 -7 22 -15 15 -17
-38 -14 -157 87 -194 164 -23 47 -40 193 -23 193 5 0 10 -26 11 -58z m280 -48
c9 -9 22 -12 32 -8 9 3 39 8 66 11 44 4 48 3 33 -10 -10 -8 -21 -29 -24 -47
-14 -69 -114 -69 -129 0 -9 39 -32 51 -92 45 -26 -2 -39 -2 -28 1 11 3 24 10
30 15 15 15 95 10 112 -7z m179 -33 c5 -4 24 -13 42 -19 34 -12 44 0 15 17
-22 13 -7 14 50 4 35 -5 38 -8 32 -30 -7 -28 -60 -104 -80 -116 -10 -5 -26 5
-49 30 -29 32 -36 35 -41 21 -4 -10 2 -29 16 -47 27 -36 19 -49 -33 -58 l-36
-5 -3 50 -4 51 23 -27 c18 -21 22 -22 17 -7 -14 43 -17 103 -6 124 12 22 40
28 57 12z"/>
<path d="M1933 2580 c-12 -5 -29 -22 -37 -39 -24 -45 -19 -50 9 -10 32 48 53
55 79 29 l21 -21 -29 12 c-26 12 -30 11 -47 -10 -20 -25 -36 -88 -24 -99 4 -4
10 -1 13 7 2 7 16 27 31 43 24 27 27 28 46 13 19 -15 19 -15 -6 -10 -20 5 -27
1 -37 -20 -16 -34 -15 -74 3 -105 8 -14 14 -44 15 -68 0 -47 13 -58 51 -43 23
10 23 10 -6 8 -29 -2 -30 0 -35 48 -3 28 -12 61 -19 74 -23 42 4 120 32 92 15
-15 67 -14 67 2 0 6 3 22 6 35 5 17 2 22 -13 22 -10 0 -34 11 -53 25 -37 28
-36 27 -67 15z"/>
<path d="M2232 2170 c-16 -15 -21 -28 -16 -43 9 -33 33 -67 46 -67 6 0 2 10
-10 23 -12 13 -22 27 -22 32 0 5 13 -6 29 -25 16 -19 27 -39 24 -43 -3 -5 1
-21 7 -38 14 -34 44 -39 60 -10 18 35 11 66 -24 100 -19 19 -36 46 -38 60 -4
33 -27 37 -56 11z"/>
<path d="M2710 2165 c0 -16 -13 -39 -35 -61 -26 -25 -35 -43 -35 -67 0 -58 42
-77 62 -29 7 15 27 44 45 65 38 43 42 79 11 101 -32 23 -48 20 -48 -9z"/>
<path d="M1542 1793 c-35 -17 -48 -48 -37 -85 17 -55 37 -60 98 -21 71 46 82
68 47 103 -24 24 -63 25 -108 3z"/>
<path d="M3352 1794 c-36 -25 -28 -59 19 -91 23 -16 48 -32 55 -38 29 -21 82
45 69 86 -8 26 -62 59 -95 59 -14 0 -36 -7 -48 -16z"/>
<path d="M1048 1670 c-32 -25 -40 -53 -21 -79 12 -18 21 -20 76 -15 99 9 107
11 107 39 0 29 -32 49 -65 41 -17 -4 -24 -1 -28 14 -7 26 -37 26 -69 0z"/>
<path d="M3883 1670 c-4 -14 -11 -19 -23 -15 -31 10 -70 -12 -70 -39 0 -28 16
-36 71 -36 22 0 49 -5 59 -10 15 -8 24 -6 40 10 27 27 25 48 -7 82 -32 33 -63
36 -70 8z"/>
<path d="M2250 1608 c-32 -53 -23 -153 11 -132 41 24 -22 -32 -68 -62 -77 -49
-92 -107 -41 -161 28 -30 46 -29 88 5 19 16 55 40 80 54 25 14 55 37 68 51 21
22 22 29 13 61 -5 20 -25 60 -44 89 -19 29 -37 69 -41 90 -9 48 -38 50 -66 5z"/>
<path d="M2687 1633 c-4 -3 -7 -19 -7 -34 0 -15 -18 -54 -41 -88 -22 -33 -44
-75 -49 -92 -9 -29 -6 -35 26 -64 19 -18 52 -41 72 -51 20 -11 43 -25 51 -32
70 -66 131 -43 131 49 0 44 -15 65 -68 95 -49 29 -100 73 -70 62 55 -21 49
116 -6 154 -14 10 -31 10 -39 1z"/>
<path d="M2453 1253 c-30 -30 -76 -59 -150 -93 -59 -28 -121 -62 -139 -75 -53
-40 -108 -175 -61 -149 7 4 -2 -8 -19 -27 -47 -50 -54 -71 -54 -149 0 -69 2
-74 34 -106 40 -40 66 -44 66 -11 1 19 3 18 14 -8 22 -52 43 -65 97 -65 39 0
55 5 74 24 36 36 40 68 20 181 -15 89 -16 110 -4 156 7 30 16 58 21 64 4 5 8
17 8 27 0 25 113 138 139 138 33 0 133 -108 149 -161 21 -69 25 -167 9 -254
-13 -74 -13 -83 4 -122 20 -48 39 -56 114 -51 46 3 50 5 72 47 16 31 23 38 23
23 0 -33 14 -33 52 -2 50 42 67 109 43 179 -9 27 -26 60 -38 73 -12 14 -31 36
-42 49 l-20 24 22 -18 c56 -47 22 59 -38 121 -18 18 -86 59 -153 91 -81 38
-132 70 -152 93 -17 19 -35 37 -40 40 -5 2 -28 -15 -51 -39z m202 -92 c168
-79 171 -81 181 -150 3 -25 15 -61 25 -79 10 -18 19 -34 19 -36 0 -12 -114
109 -135 143 -22 36 -29 41 -36 28 -6 -10 -3 -33 10 -67 26 -69 4 -50 -50 41
-22 39 -61 87 -90 111 -28 24 -55 53 -60 66 -10 26 -39 30 -39 5 0 -9 -27 -41
-60 -70 -34 -31 -77 -84 -100 -122 -43 -74 -83 -119 -54 -62 20 40 30 101 16
101 -6 0 -20 -15 -31 -32 -23 -37 -52 -69 -100 -113 l-33 -30 20 40 c10 22 22
61 26 87 8 57 18 64 167 136 68 33 116 63 135 85 l29 34 45 -42 c25 -22 77
-56 115 -74z"/>
<path d="M1465 1132 c-6 -4 -23 -28 -38 -54 -15 -27 -32 -48 -38 -48 -22 0 -3
-45 23 -54 75 -26 140 74 92 142 -16 24 -23 26 -39 14z"/>
<path d="M3495 1120 c-26 -28 -16 -107 16 -131 27 -21 61 -24 90 -9 26 14 24
26 -8 65 -16 17 -36 46 -45 64 -20 36 -28 38 -53 11z"/>
<path d="M2457 980 c-30 -36 -42 -84 -32 -132 9 -39 63 -138 76 -138 5 0 22
27 39 60 39 76 41 150 7 201 -30 45 -58 48 -90 9z m73 -5 c37 -39 39 -111 6
-180 -15 -30 -31 -55 -36 -55 -15 0 -58 83 -61 115 -4 60 1 84 27 114 31 37
34 38 64 6z"/>
</g>
</svg>
